<?xml version="1.0" encoding="utf-8"?>
<!-- Generator: Adobe Illustrator 16.0.4, SVG Export Plug-In . SVG Version: 6.00 Build 0)  -->
<!DOCTYPE svg PUBLIC "-//W3C//DTD SVG 1.1//EN" "http://www.w3.org/Graphics/SVG/1.1/DTD/svg11.dtd">
<svg version="1.1" id="Layer_1" xmlns="http://www.w3.org/2000/svg" xmlns:xlink="http://www.w3.org/1999/xlink" x="0px" y="0px"
	 width="318px" height="434px" viewBox="155.14 -26.555 318 434" enable-background="new 155.14 -26.555 318 434"
	 xml:space="preserve">
<g id="Feeding1">
	<rect x="180.333" y="35.033" fill="none" stroke="#000000" stroke-miterlimit="10" width="103.332" height="55"/>
</g>
<g id="Anaerobic1">
	<rect x="180.333" y="120.133" fill="none" stroke="#000000" stroke-miterlimit="10" width="103.332" height="55"/>
</g>
<g id="Aerobic1">
	<rect x="180.333" y="296.445" fill="none" stroke="#000000" stroke-miterlimit="10" width="103.332" height="55"/>
</g>
<g id="Anoxic1">
	<rect x="344.333" y="35.033" fill="none" stroke="#000000" stroke-miterlimit="10" width="103.332" height="55"/>
</g>
<g id="Feeding2">
	<rect x="344.333" y="120.133" fill="none" stroke="#000000" stroke-miterlimit="10" width="103.332" height="55"/>
</g>
<g id="Anaerobic2">
	<rect x="344.333" y="209.445" fill="none" stroke="#000000" stroke-miterlimit="10" width="103.332" height="55"/>
</g>
<g id="Aerobic2">
	<rect x="344.333" y="296.445" fill="none" stroke="#000000" stroke-miterlimit="10" width="103.332" height="55"/>
</g>
<g id="Anoxic2">
	<rect x="180.333" y="209.445" fill="none" stroke="#000000" stroke-miterlimit="10" width="103.332" height="55"/>
</g>
<text transform="matrix(1 0 0 1 217.1399 69.4448)" font-family="'MyriadPro-Regular'" font-size="12">Feed</text>
<text transform="matrix(1 0 0 1 204.1399 152.4448)" font-family="'MyriadPro-Regular'" font-size="12">Anaerobic</text>
<text transform="matrix(1 0 0 1 210.1399 241.4448)" font-family="'MyriadPro-Regular'" font-size="12">Aerobic</text>
<text transform="matrix(1 0 0 1 217.1399 330.4448)" font-family="'MyriadPro-Regular'" font-size="12">Anoxic</text>
<text transform="matrix(1 0 0 1 381.1399 69.4448)" font-family="'MyriadPro-Regular'" font-size="12">Feed</text>
<text transform="matrix(1 0 0 1 368.1399 152.4448)" font-family="'MyriadPro-Regular'" font-size="12">Anaerobic</text>
<text transform="matrix(1 0 0 1 374.1399 241.4448)" font-family="'MyriadPro-Regular'" font-size="12">Aerobic</text>
<text transform="matrix(1 0 0 1 381.1399 330.4448)" font-family="'MyriadPro-Regular'" font-size="12">Anoxic</text>
<text transform="matrix(1 0 0 1 210.1399 10.4448)" font-family="'MyriadPro-Regular'" font-size="12">Phase1</text>
<text transform="matrix(1 0 0 1 374.1399 10.4448)" font-family="'MyriadPro-Regular'" font-size="12">Phase2</text>
</svg>
